<svg width="20" height="20" viewBox="0 0 20 20" fill="none" xmlns="http://www.w3.org/2000/svg">
<g clip-path="url(#clip0_19_427)">
<path d="M12.123 15.291V19.5098C11.4037 19.6766 10.6534 19.7656 9.88281 19.7656H9.87891C9.11139 19.7656 8.36458 19.678 7.64746 19.5127L7.64648 15.291L9.88477 13.1035L12.123 15.291ZM18.2725 15.1084C17.9263 15.6641 17.5251 16.1833 17.0781 16.6582L16.6543 17.083C16.1809 17.5285 15.6625 17.9283 15.1084 18.2744L12.1377 15.3037C13.5657 14.7084 14.7071 13.5648 15.3008 12.1367L18.2725 15.1084ZM4.45996 12.1348C5.05371 13.5633 6.19604 14.7058 7.62305 15.3018L4.65234 18.2725C4.04546 17.8938 3.48371 17.4506 2.97461 16.9531L2.81152 16.791C2.31252 16.2804 1.86876 15.7156 1.48926 15.1064L4.45996 12.1348ZM9.80762 7.63672C11.0388 7.63672 12.037 8.64197 12.0371 9.88281C12.0371 11.1237 11.0388 12.1299 9.80762 12.1299C8.5765 12.1298 7.5791 11.1237 7.5791 9.88281C7.57916 8.64201 8.57653 7.63679 9.80762 7.63672ZM6.66699 9.88477H6.66602L4.47461 12.123H0.25C0.104136 11.493 0.0186231 10.8396 0 10.1699V9.60059C0.0186257 8.93081 0.104098 8.27763 0.25 7.64746H4.47559L6.66699 9.88477ZM19.5107 7.64746C19.6769 8.36688 19.7656 9.11766 19.7656 9.88672C19.7656 10.6557 19.6768 11.4045 19.5107 12.123H15.2939L13.0342 9.88477L15.2939 7.64746H19.5107ZM7.62891 4.46582C6.20092 5.05952 5.05716 6.20076 4.46191 7.62793L1.49121 4.65723C2.29132 3.37675 3.37598 2.29349 4.65723 1.49414L7.62891 4.46582ZM15.1055 1.49414C16.3866 2.29269 17.4705 3.37687 18.2705 4.65723L15.2998 7.62793C14.7046 6.2009 13.5615 5.05957 12.1338 4.46582L15.1055 1.49414ZM9.88184 0C10.6523 0 11.403 0.0880854 12.123 0.254883V4.47559L9.88477 6.71387L7.64648 4.47559V0.253906C8.36507 0.0878443 9.11126 1.8415e-05 9.88184 0Z" fill="#4B76FA"/>
</g>
<defs>
<clipPath id="clip0_19_427">
<rect width="19.7656" height="19.7656" fill="white"/>
</clipPath>
</defs>
</svg>
